<svg class="absolute text-teal-800 -top-10% h-24 sm:h-24 lg:h-32 right-10%" viewBox="0 0 123 141" fill="none"
    xmlns="http://www.w3.org/2000/svg">
    <g clip-path="url(#clip0)">
        <path
            d="M75.0001 37.7C75.0001 38.2 74.5001 38.8 74.0001 38.8C73.2001 38.8 69.7001 37.7 62.1001 37.7C28.5001 37.7 17.7001 54.7 17.7001 63.4C17.7001 63.9 17.5001 64.2 16.9001 64.2C15.5001 64.2 12.6001 61.4 12.6001 56.5C12.6001 47.2 25.8001 34.1 52.6001 34.1C71.2001 34.1 75.0001 36.9 75.0001 37.7ZM48.3001 69.5C48.3001 69.8 48.1001 70 47.8001 70C47.3001 70 46.9001 69.5 44.4001 69.5C41.8001 69.5 37.5001 70.8 33.4001 72.3C27.0001 83 23.0001 96.8 23.0001 102C23.0001 102.5 22.6001 102.8 22.2001 102.8C21.1001 102.8 18.1001 100.1 18.1001 95.3C18.1001 91.4 20.7001 83.4 24.4001 75.3C23.5001 75.5 22.8001 75.7 22.4001 75.7C18.8001 75.7 16.3001 72.8 16.3001 71C16.3001 70.4 16.6001 70.2 17.4001 70.2C20.2001 70.2 23.7001 69.7 27.4001 69.1C27.4001 69.1 27.5001 69.1 27.5001 69C33.6001 57.4 37.4001 52.3 41.3001 44.1C42.0001 42.7 42.3001 42.2 43.1001 42.2C44.6001 42.2 46.9001 44.7 46.9001 47C46.9001 51.7 43.1001 56.7 36.3001 67.5C39.3001 67 42.0001 66.6 43.8001 66.6C46.0001 66.5 48.3001 68.3 48.3001 69.5Z"
            fill="#A3861E" />
        <path
            d="M47.2001 82.6C46.8001 82.6 45.7001 81.9 45.7001 81.1C45.7001 80.8 46.1001 80.3 46.5001 79.6C49.5001 75.2 51.8001 71 51.8001 71C51.1001 70.1 49.9001 67.9 49.9001 66.6C49.9001 62.8 53.5001 58.4 55.3001 58.4C56.7001 58.4 57.8001 59.9 57.8001 61.3C57.8001 63.5 55.9001 67 54.8001 68.8C54.8001 71.3 60.8001 74.8 60.8001 78.3C60.8001 82.1 57.0001 87 57.0001 91.8C57.0001 92.6 57.5001 92.9 57.9001 92.9C60.3001 92.9 68.0001 82.7 70.8001 78.9C71.1001 78.5 71.3001 78.3 71.5001 78.3C72.2001 78.3 72.8001 79.1 72.8001 79.7C72.8001 80.2 72.6001 80.6 72.2001 81.2C69.5001 85.1 62.0001 96.4 57.0001 96.4C52.7001 96.4 49.5001 93.1 49.5001 89.7C49.5001 83.3 55.8001 79 55.8001 75.4C55.8001 74.4 55.6001 74.3 53.8001 72.9C53.8001 72.9 51.8001 76.3 48.1001 81.9C47.7001 82.3 47.5001 82.6 47.2001 82.6Z"
            fill="#A3861E" />
        <path
            d="M78.1001 95.2C73.3001 95.2 68.8001 92.3 68.8001 86.2C68.8001 76.5 78.1001 69.1 83.6001 69.1C85.5001 69.1 88.1001 71.8 88.1001 74.1C88.0001 79.1 82.4001 84.7 78.4001 84.7C77.5001 84.7 75.9001 83.9 75.9001 83.9C75.9001 83.9 74.9001 86 74.9001 89.2C74.9001 91.5 75.7001 92.3 76.7001 92.3C81.9001 92.3 88.7001 84.3 92.5001 79C92.8001 78.6 93.0001 78.4 93.2001 78.4C93.9001 78.4 94.5001 79.2 94.5001 79.8C94.5001 80.3 94.3001 80.7 93.9001 81.3C91.1001 85.4 83.1001 95.2 78.1001 95.2ZM76.9001 81.4C78.9001 81.4 85.1001 75.4 85.3001 73.4C85.3001 73.1 85.1001 72.9 84.9001 72.9C84.0001 72.8 80.7001 74.7 76.9001 81.4Z"
            fill="#A3861E" />
        <path
            d="M99.9001 95.2C95.1001 95.2 90.6001 92.3 90.6001 86.2C90.6001 76.5 99.9001 69.1 105.4 69.1C107.3 69.1 109.9 71.8 109.9 74.1C109.8 79.1 104.2 84.7 100.2 84.7C99.3001 84.7 97.7001 83.9 97.7001 83.9C97.7001 83.9 96.7001 86 96.7001 89.2C96.7001 91.5 97.5001 92.3 98.5001 92.3C103.7 92.3 110.5 84.3 114.3 79C114.6 78.6 114.8 78.4 115 78.4C115.7 78.4 116.3 79.2 116.3 79.8C116.3 80.3 116.1 80.7 115.7 81.3C112.9 85.4 104.9 95.2 99.9001 95.2ZM98.7001 81.4C100.7 81.4 106.9 75.4 107.1 73.4C107.1 73.1 106.9 72.9 106.7 72.9C105.9 72.8 102.6 74.7 98.7001 81.4Z"
            fill="#A3861E" />
        <path
            d="M26.8 8.89994L35.9001 4.49994L37.2001 7.19994L31.4 9.99994L33.5 14.3999L38.3 12.0999L39.6 14.7999L34.8 17.0999L38.2001 24.0999L34.9001 25.6999L26.8 8.89994Z"
            fill="currentColor" />
        <path d="M40.6 3.09994L44.1 2.09994L49.1 19.9999L45.6 20.9999L40.6 3.09994Z" fill="currentColor" />
        <path
            d="M56.8 18.6999L53.1 18.8999L52.1 0.399944L58 -5.59986e-05C60.4 -0.100056 61.6 0.199944 62.6 1.09994C63.5 1.99994 64 3.19994 64.1 5.19994C64.3 8.39994 63.6 9.79994 61.5 10.6999L65.4001 18.2999L61.4001 18.4999L58 11.0999L56.5 11.1999L56.8 18.6999ZM58.2001 8.19994C59.9001 8.09994 60.5001 7.29994 60.4001 5.49994C60.3001 3.59994 59.6001 2.89994 57.9001 2.99994L55.9001 3.09994L56.2001 8.39994L58.2001 8.19994Z"
            fill="currentColor" />
        <path
            d="M70.5 13.8999C70.6 15.7999 71.2001 16.5999 72.9001 16.9999C74.7001 17.3999 75.6 16.7999 76 15.0999C76.2 14.2999 76.1 13.6999 75.7 13.2999C75.3 12.7999 75.3001 12.7999 73.3001 11.7999C70.2001 10.0999 69.3001 8.39994 69.9001 5.49994C70.6001 2.09994 73 0.599944 76.5 1.29994C79.6 1.89994 80.8001 3.49994 80.9001 6.59994L77.7 6.79994C77.4 4.99994 77.0001 4.39994 75.8001 4.19994C74.5001 3.89994 73.6001 4.59994 73.3001 5.99994C73.0001 7.39994 73.5 8.19994 75.6 9.29994C77.5 10.2999 78 10.5999 78.6 11.3999C79.5 12.3999 79.7001 13.7999 79.3001 15.6999C78.5001 19.3999 76.2 20.7999 72.2 19.9999C69.9 19.4999 68.4 18.5999 67.7 17.1999C67.4 16.4999 67.2 15.6999 67.1 14.2999L70.5 13.8999Z"
            fill="currentColor" />
        <path
            d="M88.6 8.59995L85 6.89994L86.3001 4.19994L97 9.19994L95.7 11.8999L92 10.1999L85.4001 24.2999L82 22.6999L88.6 8.59995Z"
            fill="currentColor" />
        <path
            d="M37.7 131C36.8 132.6 36.1 133.3 35.1 133.8C33.6 134.5 31.9 134.3 29.9 133.3C27.8 132.3 26.7 130.9 26.5 129.2C26.3 127.9 26.7 126.5 27.8 124.3L30.1 119.8C31.3 117.4 32.3 116.3 33.6 115.7C35.1 115.1 36.6 115.2 38.5 116.2C41.8 117.9 42.6 120.3 41 123.7L38 122.3C38.7 120.5 38.5 119.5 37.2 118.9C35.6 118.1 34.7 118.8 33.2 121.7L31.1 125.7C29.6 128.6 29.6 129.8 31.2 130.6C32.6 131.3 33.6 130.9 34.7 129.2L37.7 131Z"
            fill="currentColor" />
        <path d="M45.6 119.6L49.2 120.4L45.7 135.6L52.3 137.1L51.6 140L41.5 137.7L45.6 119.6Z" fill="currentColor" />
        <path
            d="M59.2 137L58.3 140.6L54.3 140.7L60 122L63.3 121.9L69.6 140.4L65.6 140.5L64.6 136.9L59.2 137ZM61.8 126.6L60 134.1L63.9 134L61.8 126.6Z"
            fill="currentColor" />
        <path
            d="M74.8 134C75.7 135.7 76.7 136.1 78.3 135.7C80 135.2 80.6 134.3 80.2 132.6C80 131.8 79.6 131.3 79.1 131.1C78.6 130.8 78.6 130.8 76.3 130.8C72.8 130.7 71.2 129.5 70.5 126.7C69.6 123.3 71.1 120.9 74.5 120C77.5 119.2 79.4 120 80.8 122.8L78.1 124.4C77.1 122.8 76.5 122.5 75.3 122.8C74 123.1 73.5 124.1 73.9 125.5C74.3 126.9 75.1 127.4 77.4 127.5C79.6 127.5 80.1 127.6 81 128C82.3 128.5 83.1 129.6 83.6 131.5C84.6 135.1 83.1 137.5 79.2 138.5C77 139.1 75.2 138.9 73.9 138C73.3 137.5 72.7 136.9 72.1 135.6L74.8 134Z"
            fill="currentColor" />
        <path
            d="M89.4 129.1C90.7 130.5 91.7 130.7 93.2 129.9C94.8 129 95.1 128 94.3 126.5C93.9 125.8 93.4 125.4 92.9 125.3C92.3 125.2 92.3 125.2 90.1 125.7C86.7 126.4 84.9 125.7 83.5 123.1C81.8 120 82.7 117.4 85.8 115.7C88.5 114.2 90.5 114.6 92.6 116.9L90.3 119.1C89 117.8 88.3 117.6 87.2 118.2C86 118.8 85.8 119.9 86.5 121.2C87.2 122.5 88.1 122.7 90.4 122.3C92.5 121.8 93.1 121.8 94 121.9C95.3 122.1 96.4 123 97.3 124.7C99.1 128 98.2 130.6 94.6 132.5C92.6 133.6 90.8 133.8 89.4 133.2C88.7 132.9 88 132.4 87.1 131.3L89.4 129.1Z"
            fill="currentColor" />
        <path d="M22.3 117.3C8.5 105.7 0.5 88.5 0.5 70.5C0.5 51.2 9.7 32.9 25.3 21.4" stroke="black"
            stroke-miterlimit="10" />
        <path d="M98.1001 21.7C113.4 33.2 122.5 51.2999 122.5 70.5C122.5 88.7999 114.3 106.2 100.1 117.7"
            stroke="currentColor" stroke-miterlimit="10" />
    </g>
    <defs>
        <clipPath id="clip0">
            <rect width="123" height="140.6" fill="white" />
        </clipPath>
    </defs>
</svg>