<svg width="1032" height="989" viewBox="0 0 1032 989" fill="none" xmlns="http://www.w3.org/2000/svg">
<path d="M488.455 535.883C459.552 652.83 401.15 748.422 310.92 824.145C308.313 823.416 305.861 822.336 303.604 821.761C313.145 782.04 320.234 741.24 333.082 702.558C346.436 663.679 365.55 626.918 379.742 594.684C296.691 666.456 194.88 698.178 73.5721 678.231C136.354 612.593 207.64 566.594 287.669 531.138C186.999 544.12 92.1807 529.562 0.0213985 474.763C72.9961 456.279 142.825 461.09 216.974 456.09C145.696 414.667 75.7202 378.838 21.9269 312.905C109.304 322.514 190.667 335.331 268.254 369.074C204.52 317.169 145.706 260.738 98.7266 186.929C190.936 211.214 269.404 252.456 341.043 308.26C307.982 235.141 280.864 160.875 264.64 78.0192C333.07 127.809 378.454 190.04 408.783 259.864C423.728 186.967 439.445 112.319 454.658 37.8666C457.068 38.0915 459.479 38.3165 461.89 38.5414C495.273 114.73 510.867 195.216 517.336 278.378C550.998 188.624 594.4 105.251 654.97 29.4361C659.546 59.8952 645.842 154.672 627.019 207.874C607.003 264.734 584.535 320.515 564.156 373.45C644.813 294.767 743.558 242.453 864.539 224.192C782.853 330.865 676.185 396.423 563.001 454.928C678.128 418.611 795.056 408.604 915.005 428.79C900.786 453.483 878.383 472.064 852.897 487.195C800.916 517.85 743.305 528.041 684.029 528.713C633.149 529.317 582.185 528.211 531.109 528.311C525.278 528.253 519.139 528.896 508.374 529.594C557.215 557.373 594.336 590.868 617.508 637.044C628.156 658.464 637.681 681.481 642.932 704.708C656.513 765.067 683.076 813.991 747.59 832.775C747.519 834.836 747.645 837.401 747.574 839.461C740.972 841.156 733.794 845.106 727.725 843.689C674.395 832.757 636.544 801.869 618.91 749.766C612.075 729.188 608.969 707.742 604.152 686.379C588.722 619.769 551.002 570.533 488.455 535.883Z" fill="#AADADA"/>
</svg>
