<svg class=" overflow-visible sm:absolute sm:right-0 h-40 sm:h-48 md:h-56 lg:h-30vmax xl:h-30vmax mr-8"
    viewBox="0 0 1133 1022" fill="none" xmlns="http://www.w3.org/2000/svg">
    <g id="noquestion">
        <g id="Vector">
            <path
                d="M835.522 667.957C838.429 677.547 841.335 687.138 845.113 700.216C870.979 631.338 883.476 560.134 933.754 506.077C909.923 579.025 882.023 649.938 844.822 715.62C843.369 709.807 841.044 701.67 838.719 692.66C833.197 693.241 827.966 693.532 823.025 694.113C821.572 721.142 833.197 737.126 848.891 729.57C850.635 737.417 852.088 745.264 853.541 753.111C854.413 753.401 855.576 753.692 856.447 753.692C858.191 748.751 859.935 743.52 861.679 738.579C880.279 690.916 898.007 642.672 918.351 595.881C925.326 579.896 939.276 566.818 952.064 552.578C949.739 562.168 948.577 572.631 944.508 581.64C917.189 639.766 888.998 697.601 861.097 755.436C852.088 773.745 857.32 791.473 859.935 813.852C895.101 744.392 911.957 669.7 962.817 613.319C964.27 613.9 966.014 614.481 967.467 615.063C966.305 620.294 965.724 625.816 963.399 630.466C935.789 685.685 907.889 740.904 879.698 796.123C877.954 799.611 875.92 803.098 873.304 805.714C853.832 823.442 861.679 845.53 864.295 867.037C865.748 864.421 867.491 862.096 868.945 859.48C891.614 811.527 913.41 762.701 937.823 715.62C947.414 696.729 962.236 680.744 977.639 664.76C976.767 668.538 976.186 672.025 975.314 675.804C974.152 679.872 973.28 684.232 971.245 688.301C939.567 751.948 910.795 817.049 867.782 874.593C861.679 882.73 864.876 899.587 866.91 912.084C869.235 927.778 875.338 942.6 878.826 958.294C880.279 964.397 879.117 971.372 879.117 977.766C877.663 978.347 876.21 978.928 874.757 979.8C871.851 974.278 868.073 969.047 866.038 962.944C863.423 954.806 861.098 946.087 860.226 937.659C857.319 913.246 841.626 896.971 825.06 880.115C801.519 899.878 777.106 918.768 755.309 939.984C733.512 961.2 709.099 975.15 678.584 979.219C705.031 958.875 704.74 919.059 735.837 902.493C752.403 893.484 768.678 884.184 784.953 875.174C787.278 873.721 789.894 872.849 791.928 870.233C765.772 871.105 739.034 868.78 716.365 886.799C694.859 903.946 672.48 920.221 650.392 936.497C646.324 939.403 641.383 941.147 637.024 943.181C652.718 916.734 668.121 890.868 684.106 864.13C681.49 862.387 677.712 860.061 675.677 858.899C700.09 848.727 724.503 837.974 749.497 828.674C759.087 824.896 769.55 823.733 781.175 821.117C780.594 812.108 775.944 807.167 764.319 805.133C731.187 799.32 707.937 818.211 684.687 835.939C663.471 852.505 643.999 871.687 623.364 889.124C616.389 895.227 607.961 899.587 599.533 903.656C620.748 870.524 629.758 828.964 668.993 808.62C665.796 805.714 664.052 803.97 663.471 803.68C687.302 793.217 711.715 782.755 738.162 771.13C729.734 763.573 721.887 756.307 711.134 746.717C659.111 790.602 607.961 833.905 559.717 874.302C566.111 860.933 573.086 843.786 582.095 827.802C597.498 800.192 617.552 777.233 646.324 762.992C651.846 760.086 657.368 756.889 664.633 753.111C659.693 751.076 656.205 749.623 653.59 748.46C665.796 743.81 678.583 738.87 695.149 732.476C684.105 724.92 676.84 719.979 671.027 715.91C613.192 755.726 562.623 801.064 519.029 854.54C535.013 820.245 544.604 782.755 573.958 757.179C597.789 736.545 622.493 717.363 655.043 711.841C656.205 711.551 657.077 710.388 661.727 707.191C652.427 705.157 646.033 703.413 638.767 701.669C640.22 700.216 641.674 698.763 643.418 697.02C636.152 689.173 629.758 689.463 621.039 695.857C574.829 730.151 533.27 768.805 500.138 816.177C492.872 826.639 483.572 835.358 475.144 844.949C473.691 844.077 472.529 843.205 471.075 842.043C489.094 810.364 504.788 777.523 525.423 747.589C547.22 715.62 579.48 695.857 617.552 684.232C616.099 681.907 614.645 679.291 613.192 676.385C621.039 680.163 628.886 684.232 637.024 688.01C632.083 676.675 632.955 661.854 617.552 660.691C627.433 647.903 614.355 638.603 611.449 627.85C610.867 626.106 602.439 626.106 593.43 624.653C604.473 643.835 596.917 664.469 613.773 676.676C590.814 659.238 574.829 673.188 558.264 688.301C518.448 724.629 482.41 763.864 453.638 809.783C450.15 815.596 445.21 820.536 441.432 825.767C439.397 828.383 437.653 831.58 435.038 833.324C453.638 760.957 499.847 688.01 574.829 663.888C571.342 660.691 568.726 658.075 565.82 655.169C575.992 658.366 585.873 661.272 595.755 664.469C579.48 629.885 563.786 596.753 547.801 562.168C545.767 562.75 541.698 563.621 536.467 564.784C543.151 584.547 549.835 603.147 555.939 621.747C559.717 633.081 562.914 644.416 566.401 655.75C558.845 652.844 551.289 649.938 543.442 646.741L543.151 647.322C546.639 647.031 550.126 646.741 550.417 646.741C531.235 604.89 512.054 563.04 492.582 520.318C491.129 520.608 487.06 521.19 482.991 521.771C501.01 516.83 497.523 504.043 495.779 490.383C484.735 493.58 474.853 496.196 464.1 499.393C466.716 505.205 468.46 508.983 469.913 513.052C485.025 552.578 499.847 592.103 515.251 631.338C516.704 635.116 520.192 638.022 522.807 641.51L523.098 641.219C497.813 631.338 480.957 642.672 465.263 662.144C438.234 695.566 409.462 727.535 381.271 760.086C365.287 778.686 349.303 797.577 331.284 814.724C338.84 801.645 347.268 789.148 353.952 775.78C376.912 729.86 404.812 688.01 446.663 656.622C454.8 650.519 464.1 646.45 472.529 640.928C476.016 638.603 478.341 634.535 480.957 631.338H480.666C489.385 632.5 498.104 633.953 505.951 635.116C491.129 608.378 473.982 583.384 463.229 556.065C452.766 529.327 449.278 499.974 442.594 471.783C444.047 471.202 445.5 470.621 447.244 470.039C452.766 477.886 458.288 485.443 464.682 494.452C474.854 489.802 489.385 491.546 494.326 481.374C503.916 478.468 511.763 477.014 518.448 473.527C553.614 454.636 590.233 439.524 629.758 434.002C647.777 431.386 666.377 431.676 687.012 430.805C682.071 426.155 677.421 422.086 672.771 417.726C673.643 415.401 675.968 412.205 675.387 410.17C665.505 377.329 670.155 345.36 679.165 313.1C683.233 297.988 685.559 282.294 689.046 265.438C692.824 281.422 700.09 297.407 699.509 313.1C698.346 341.873 694.859 370.935 687.883 398.836C683.524 415.983 682.943 427.898 698.346 437.78C679.165 442.139 659.693 445.917 640.802 451.149C607.38 460.158 574.248 470.33 539.373 480.502C542.57 485.733 544.895 489.221 546.639 492.418C561.461 486.605 573.958 480.502 587.326 476.143C628.305 463.064 669.865 451.73 713.459 462.483C715.203 462.774 717.818 458.995 720.143 456.961C727.409 463.646 734.965 470.33 744.556 479.049C743.975 416.855 752.693 359.31 792.8 309.904C792.8 317.169 794.253 324.435 792.509 330.829C781.175 375.876 769.55 420.633 757.634 465.389C755.309 473.527 752.403 481.664 749.497 489.802C736.418 470.33 718.69 466.261 697.184 473.817C694.859 474.689 692.243 474.399 689.918 474.689C655.624 481.955 621.33 489.221 586.745 496.487C596.336 520.609 596.627 520.609 617.552 512.762C651.265 500.265 686.14 492.708 722.178 495.033C731.768 495.615 741.359 498.23 752.112 499.974C750.659 495.324 749.787 492.127 748.915 488.93C754.728 496.777 760.54 504.624 766.353 512.471L766.643 512.18C758.506 511.018 750.369 508.112 742.522 509.274C707.937 514.505 673.352 520.899 638.186 527.002C640.511 534.849 641.674 539.79 643.127 544.149C644.871 544.44 646.033 545.021 646.615 544.731C651.265 543.568 655.914 542.406 660.564 540.953C698.346 530.49 736.128 525.549 774.2 539.209C775.653 539.79 778.559 536.302 780.884 534.559C785.534 540.662 790.184 546.765 796.578 555.193C805.297 488.349 818.085 426.445 859.935 372.679C858.482 383.432 858.482 393.314 855.576 402.033C838.429 453.764 820.119 505.205 802.681 556.646C800.938 561.878 802.1 567.981 801.81 573.793C794.835 550.253 778.269 545.893 756.181 549.381C733.221 553.159 709.971 555.193 687.302 557.809C686.14 574.084 691.662 579.315 704.159 573.212C716.365 567.109 728.862 571.178 741.068 572.05C761.122 573.793 781.175 576.7 801.228 579.025C801.228 578.734 801.228 576.118 801.228 573.212C804.135 579.606 807.041 586.29 810.238 592.684C784.372 593.556 758.215 594.428 732.35 595.3C731.478 596.462 730.606 597.916 729.734 599.078C733.512 603.437 737 611.866 740.778 611.866C749.497 612.156 760.54 619.713 766.062 609.541C783.5 615.353 800.938 621.166 821.863 627.85C817.213 614.191 813.435 603.147 809.657 592.103C811.691 593.265 813.725 594.428 816.341 595.881C830.872 531.362 841.044 465.099 889.289 413.658C881.442 438.652 874.467 463.936 865.748 488.64C852.379 525.259 837.266 561.296 823.607 597.915C821.282 604.019 821.572 611.575 822.154 618.55C822.735 625.525 825.35 632.5 827.094 639.475L827.385 639.185C819.828 638.894 809.947 633.081 808.203 646.741C801.228 635.988 791.056 639.475 777.106 640.638C781.466 649.357 783.209 658.947 789.022 662.725C799.485 669.7 803.844 665.051 808.203 646.16C816.05 657.494 816.05 675.513 835.813 678.71C836.104 674.06 836.394 669.41 836.394 665.051L835.522 667.957ZM563.495 538.628C586.164 531.943 590.523 517.412 579.77 499.683C571.342 502.008 562.914 504.333 552.161 507.53C556.229 518.574 560.008 528.746 563.495 538.628ZM532.688 558.681C534.141 559.262 535.885 559.843 537.339 560.715C539.954 556.065 545.186 551.415 544.604 547.056C543.442 535.14 540.245 523.515 537.629 510.727C530.654 512.18 523.679 513.634 514.96 515.377C521.063 530.199 526.876 544.44 532.688 558.681ZM832.907 747.589C832.035 771.42 834.651 790.892 854.413 791.183C852.379 775.489 850.635 760.376 848.601 743.81C841.335 745.554 836.975 746.717 832.907 747.589ZM668.121 688.301C663.762 677.547 659.693 667.666 655.333 657.204C649.521 658.657 645.161 659.819 639.93 660.982C641.383 668.247 642.546 674.35 643.708 680.163C647.486 699.344 649.23 699.926 668.121 688.301ZM682.071 700.216C685.558 709.516 687.593 718.816 692.533 725.792C694.277 728.117 704.449 723.757 710.843 722.304C704.74 694.985 704.74 694.985 682.071 700.216ZM512.635 509.855C520.482 506.077 527.457 503.752 532.979 499.683C535.595 497.649 537.338 492.127 536.757 488.64C536.467 486.605 530.654 483.699 527.457 483.989C520.192 484.571 512.926 486.896 504.788 488.93C507.694 495.905 509.729 501.427 512.635 509.855ZM857.319 850.471C856.448 833.033 855.866 818.792 855.285 804.261C853.832 803.68 852.379 803.099 850.925 802.517C847.438 805.424 840.754 809.202 841.044 811.527C843.369 824.314 835.813 840.589 857.319 850.471ZM808.494 808.039C804.425 834.777 805.588 836.521 829.71 837.102C827.385 827.221 825.35 817.63 823.025 808.039C817.503 808.039 812.853 808.039 808.494 808.039ZM729.153 747.589C729.734 765.317 739.906 773.454 755.018 768.804C752.112 746.426 750.369 744.973 729.153 747.589ZM632.374 532.234C621.039 535.431 612.32 538.046 602.148 540.662C605.055 548.218 607.38 554.031 609.414 559.843C628.014 559.843 626.852 545.603 632.374 532.234ZM696.021 672.316C694.277 666.213 693.696 660.4 690.79 656.332C688.465 653.135 682.943 652.263 678.874 650.228C677.421 653.716 674.515 657.203 674.805 660.4C675.387 666.794 678.002 673.188 680.037 681.035C685.849 678.129 690.209 675.513 696.021 672.316ZM654.461 588.325C671.899 587.162 676.549 579.606 671.027 564.203C663.762 565.946 656.786 567.69 648.649 569.725C650.683 577.281 652.427 582.512 654.461 588.325ZM605.927 617.969C597.789 585.709 597.789 585.418 583.258 592.103C586.454 601.694 589.942 611.575 593.72 622.328C598.37 620.584 602.149 619.131 605.927 617.969ZM637.024 650.228C651.555 643.835 652.718 640.056 643.418 622.619C641.674 619.422 635.28 619.131 627.724 616.225C631.793 630.756 634.408 639.766 637.024 650.228ZM785.534 768.804C781.465 743.229 781.175 743.229 762.866 748.46C764.028 755.145 765.19 762.12 766.353 768.804C773.619 768.804 779.14 768.804 785.534 768.804ZM570.179 554.031C573.376 563.331 576.573 572.05 579.77 581.059C594.011 574.084 594.302 572.34 583.839 548.509C581.805 548.799 579.189 549.09 577.154 549.962C575.12 550.543 573.086 551.996 570.179 554.031ZM630.049 574.956C614.355 579.897 614.355 591.812 628.305 604.891C641.964 595.881 630.92 585.709 630.049 574.956ZM660.855 610.703C663.471 618.841 665.505 624.944 667.54 631.047C685.268 626.397 685.849 624.072 675.677 606.344C671.608 607.797 666.959 608.959 660.855 610.703ZM743.103 643.253C744.556 662.725 744.847 663.016 761.703 660.4C762.865 641.51 761.703 640.347 743.103 643.253ZM801.81 745.845C799.775 769.967 802.1 774.617 817.213 774.908C811.981 765.317 818.085 751.657 801.81 745.845ZM754.437 693.823C755.309 714.166 756.472 715.329 772.456 711.26C771.294 700.798 772.456 688.591 754.437 693.823ZM719.853 695.857C721.596 703.704 723.34 710.388 725.375 718.235C731.187 716.201 735.256 714.748 740.778 712.713C735.547 703.994 738.162 689.754 719.853 695.857ZM853.832 864.13C852.669 863.258 851.797 862.096 850.635 861.224C848.019 865.293 843.369 869.071 843.369 873.14C843.369 880.115 846.275 886.799 848.019 893.774C849.763 893.484 851.797 892.902 853.541 892.612C853.832 883.021 853.832 873.43 853.832 864.13ZM706.193 649.357C711.134 655.46 715.493 660.982 719.853 666.504C721.596 662.725 724.793 658.947 724.212 655.46C723.34 647.613 719.853 640.638 706.193 649.357ZM777.397 806.295C785.534 815.595 791.928 822.861 800.066 832.161C800.356 808.039 797.741 804.842 777.397 806.295ZM716.656 615.934C715.493 610.994 714.331 606.344 713.168 600.24C707.356 601.694 702.415 602.856 697.765 603.728C699.509 616.225 702.415 624.653 716.656 615.934ZM791.056 695.276C793.672 717.073 793.672 717.073 805.007 715.62C802.391 694.404 802.391 694.404 791.056 695.276Z"
                fill="#1EA3A3" />
            <path
                d="M363.254 633.663C365.579 631.919 367.613 630.466 370.81 628.141C346.397 614.772 334.482 592.393 322.275 569.725C313.266 553.159 301.059 538.046 290.015 522.062C313.266 535.14 338.26 547.056 353.082 571.178C361.801 585.128 369.357 599.95 374.297 615.353C377.785 626.106 382.726 629.013 392.607 628.431C399.582 627.85 406.557 627.56 413.823 627.269C401.326 612.156 388.538 599.078 378.366 584.256C369.938 572.05 364.126 558.1 357.732 544.44C350.175 528.746 342.91 512.762 337.097 499.974C358.022 509.274 385.051 536.884 397.838 564.784C405.976 582.803 412.079 601.984 421.67 619.131C425.157 625.525 436.201 627.85 443.176 631.338C399.292 687.429 353.372 746.135 306.872 805.714C305.128 802.808 303.966 801.936 304.256 801.645C327.506 762.701 348.722 722.595 374.588 685.394C389.12 664.469 411.207 649.066 429.226 631.919C414.695 624.653 401.326 627.85 391.444 642.381C352.791 699.926 307.453 752.239 261.244 803.68C260.372 804.552 259.209 805.423 256.593 805.133C288.853 757.761 320.241 710.098 353.663 663.597C362.382 651.391 376.623 643.253 391.154 630.756C379.819 631.919 371.391 632.791 362.963 633.663H363.254Z"
                fill="#1EA3A3" />
            <path
                d="M542.57 647.032C531.236 657.204 519.029 666.794 508.276 677.547C469.913 716.782 435.038 758.632 407.719 806.295C401.325 817.63 392.606 827.511 383.887 839.427C398.128 771.42 445.791 698.763 500.429 660.982C508.276 655.75 517.285 652.263 526.586 647.613C524.842 645.288 523.389 642.963 521.936 640.928L521.645 641.219C528.329 643.253 535.305 644.997 541.989 647.032C542.28 647.613 542.57 647.032 542.57 647.032Z"
                fill="#1EA3A3" />
            <path
                d="M213.289 666.504C184.807 660.11 156.035 653.716 127.554 647.322C127.844 645.288 128.135 643.544 128.425 641.51C156.907 646.16 185.388 650.81 214.161 655.169C226.367 657.204 238.864 658.657 251.07 660.11C216.486 688.01 180.157 717.364 143.829 746.717C142.666 745.554 141.795 744.101 140.632 742.939C170.857 717.073 201.082 691.207 231.308 665.341C231.308 665.051 231.017 664.469 231.017 664.179C205.442 680.163 180.157 695.857 154.582 711.842C154.001 710.97 153.419 710.098 152.838 708.935C161.848 702.251 170.857 695.857 179.867 689.173C179.576 688.591 179.285 688.01 178.995 687.429C163.882 694.404 148.479 701.088 129.297 709.807C134.238 704.576 136.272 702.251 139.76 698.473C112.15 705.157 87.1563 711.26 61.8717 717.364C61.581 716.201 61.2906 715.039 61 714.167C107.21 701.96 153.129 689.754 199.339 677.548C199.339 676.676 199.048 676.095 199.048 675.223C166.788 675.223 134.238 675.223 101.978 675.223C101.978 674.641 101.978 674.351 101.978 673.77C139.179 672.026 176.379 670.282 213.579 668.538C213.289 667.957 213.289 667.376 213.289 666.504Z"
                fill="#1EA3A3" />
            <path
                d="M766.063 513.633C776.816 517.993 773.619 509.274 774.491 504.624C780.013 473.527 783.791 441.848 792.219 411.333C797.16 393.314 809.076 377.329 817.795 360.473C820.701 354.951 823.316 349.72 827.095 342.454C827.095 351.463 828.838 359.31 826.804 365.995C813.435 412.786 799.485 459.286 785.826 506.077C783.21 514.796 780.885 523.224 778.269 531.943C774.2 525.84 770.132 519.737 766.063 513.633Z"
                fill="#1EA3A3" />
            <path
                d="M827.095 641.51C829.129 642.963 831.163 644.416 832.035 644.997C843.079 608.959 853.251 572.922 864.876 537.174C869.817 521.481 875.629 506.077 883.767 491.836C889.579 481.955 899.752 474.689 907.889 465.971C909.052 466.552 910.214 467.133 911.376 467.714C906.436 480.211 901.786 492.999 896.845 505.496C879.407 549.09 861.97 592.394 844.823 635.988C840.754 646.16 838.72 656.913 835.813 667.375L836.104 667.085C833.198 658.947 830.291 650.228 827.095 641.51Z"
                fill="#1EA3A3" />
            <path
                d="M480.084 631.628C472.819 631.628 465.844 631.628 462.937 631.628C448.987 615.644 435.909 602.856 425.737 588.325C414.984 572.922 405.975 556.356 397.837 539.499C389.699 522.934 383.887 505.496 377.493 489.511C396.965 500.265 413.24 517.702 425.156 538.337C439.687 563.912 451.312 590.94 464.972 617.097C468.169 622.91 474.853 626.978 480.084 631.919C479.794 631.628 480.084 631.628 480.084 631.628Z"
                fill="#1EA3A3" />
            <path
                d="M704.74 443.883C706.484 440.977 709.971 437.78 709.39 435.455C700.381 393.314 706.193 352.916 719.562 312.519C723.049 302.347 722.468 290.722 725.956 279.097C729.153 295.663 734.093 312.229 734.965 328.794C737 366.285 728.862 402.904 719.562 438.942C718.109 444.464 718.4 450.277 717.528 455.799C713.459 451.73 709.099 447.952 704.74 443.883Z"
                fill="#1EA3A3" />
            <path
                d="M458.289 324.726C462.358 326.47 466.426 328.213 470.204 329.957C470.786 329.085 471.367 327.923 471.948 327.051C448.989 310.776 426.029 294.5 402.779 278.225C403.651 277.063 404.232 275.9 405.104 275.029C433.004 293.919 460.904 312.519 488.805 331.41C489.095 330.829 489.386 330.538 489.677 329.957C469.914 307.288 450.442 284.619 430.679 261.95C432.132 260.497 433.586 259.335 434.748 257.881C463.23 287.235 492.002 316.298 521.646 346.523C471.077 348.557 419.926 350.592 368.776 352.335C368.776 350.882 368.485 349.429 368.485 347.976C413.241 344.779 457.998 341.873 503.045 338.676C503.045 338.385 503.336 338.095 503.336 337.804C459.161 334.026 415.276 330.248 378.948 327.341C391.735 327.341 412.37 327.632 433.004 327.341C441.433 327.341 449.861 325.888 457.998 325.016L458.289 324.726Z"
                fill="#1EA3A3" />
            <path
                d="M572.796 358.148C510.601 365.704 451.023 372.679 391.444 379.945C447.245 365.995 502.464 349.72 558.845 354.37C554.777 338.676 550.127 320.948 545.477 303.219C540.827 285.782 536.467 268.053 531.527 248C557.393 283.166 579.771 316.588 572.796 358.148Z"
                fill="#1EA3A3" />
            <path
                d="M649.231 404.067C653.009 405.52 656.787 406.973 660.275 408.426C660.275 410.17 660.565 411.914 660.565 413.658C587.908 432.258 514.961 450.858 442.304 469.458C441.723 468.005 441.432 466.552 440.851 465.099C448.988 462.192 457.417 459.577 465.554 456.671C497.233 445.045 528.911 432.839 560.59 421.214C586.746 411.623 613.193 405.52 641.384 406.683C643.999 406.683 646.615 404.648 649.231 403.776V404.067Z"
                fill="#1EA3A3" />
            <path
                d="M649.811 403.486C630.63 396.22 632.955 377.91 630.339 363.088C628.596 352.045 631.211 340.129 631.793 328.504C633.536 304.963 635.28 281.132 636.733 259.625C651.555 289.269 664.924 322.401 654.461 360.182C652.136 368.901 648.94 377.91 647.777 386.92C646.905 392.442 648.649 398.254 649.521 404.067C649.23 404.067 649.811 403.486 649.811 403.486Z"
                fill="#1EA3A3" />
            <path
                d="M362.962 633.372C353.662 644.125 344.071 654.878 335.061 665.632C298.733 708.644 262.405 751.657 226.367 794.67C225.495 793.798 224.623 793.217 223.461 792.345C240.608 767.642 258.336 743.52 274.901 718.526C295.245 687.719 316.17 657.785 348.139 637.731C352.499 635.116 358.312 634.825 363.252 633.372C363.252 633.663 362.962 633.372 362.962 633.372Z"
                fill="#1EA3A3" />
            <path
                d="M622.493 387.501C559.427 412.495 492.873 422.667 426.61 434.002C491.711 417.436 551.29 378.782 622.493 387.501Z"
                fill="#1EA3A3" />
            <path
                d="M334.772 637.15C312.975 629.013 296.7 615.062 283.912 595.59C273.45 579.897 259.79 566.237 247.874 552.287C287.69 560.134 337.969 608.378 334.772 637.15Z"
                fill="#1EA3A3" />
            <path
                d="M587.327 259.044C609.415 293.919 622.493 333.735 605.346 380.526C594.592 364.832 587.908 349.138 587.327 331.41C586.746 306.706 587.327 281.422 587.327 259.044Z"
                fill="#1EA3A3" />
            <path
                d="M591.106 374.423C527.749 386.339 464.683 398.545 401.326 410.461C401.035 409.008 400.744 407.264 400.454 405.811C464.101 395.348 523.099 362.798 589.943 368.32C590.234 370.354 590.815 372.389 591.106 374.423Z"
                fill="#1EA3A3" />
            <path
                d="M190.329 780.139C235.377 734.511 261.533 672.026 319.949 638.603C321.112 639.766 322.274 640.638 323.436 641.8C280.424 689.173 237.12 736.545 194.107 783.917C192.654 782.755 191.492 781.302 190.329 780.139Z"
                fill="#1EA3A3" />
            <path
                d="M291.468 648.775C289.724 646.45 288.562 643.544 286.527 642.091C273.158 632.5 258.918 623.491 245.839 613.609C231.017 602.275 216.777 590.069 203.698 579.315C232.18 579.315 276.646 607.506 300.768 642.672C297.862 644.707 294.665 646.741 291.468 648.775Z"
                fill="#1EA3A3" />
            <path
                d="M291.468 648.775C278.971 659.819 266.473 670.573 254.558 681.907C226.948 707.773 199.629 734.22 172.31 760.376C171.438 759.505 170.566 758.633 169.694 758.051C186.841 738.87 203.407 719.398 221.426 701.088C238.282 683.941 256.011 667.957 274.32 652.263C278.098 648.775 285.655 649.938 291.468 648.775Z"
                fill="#1EA3A3" />
            <path
                d="M164.755 610.122C200.211 620.003 237.993 623.491 265.312 653.135C226.368 651.682 197.596 626.106 164.755 610.122Z"
                fill="#1EA3A3" />
            <path
                d="M537.92 348.847C508.567 323.272 498.976 286.363 482.701 253.231C506.242 282.003 533.27 309.031 537.92 348.847Z"
                fill="#1EA3A3" />
            <path
                d="M458.288 324.435C434.456 320.366 410.334 316.297 386.503 312.229C386.793 311.066 386.793 310.194 387.084 309.032C394.059 309.904 400.743 310.775 407.718 311.647C408.009 311.066 408.3 310.194 408.3 309.613C386.503 300.313 364.706 290.722 342.909 281.422C343.49 280.26 344.071 278.806 344.652 277.644C382.434 293.338 420.506 309.322 458.288 325.016C458.288 324.726 458.288 324.435 458.288 324.435Z"
                fill="#1EA3A3" />
        </g>
        <g id="pose">
            <path id="Vector_2"
                d="M433.378 987.677C438.65 991.63 442.604 997.232 449.852 997.891C441.615 966.92 465.996 921.782 494.002 919.475C529.915 916.51 564.18 922.441 592.515 947.481C600.752 954.729 607.012 956.706 612.284 944.515C613.601 940.891 616.237 937.926 618.214 934.961C620.52 922.111 626.451 910.909 631.723 899.048C633.041 889.493 629.087 880.927 626.451 872.031C620.191 851.603 615.908 830.846 618.214 809.101C619.532 795.922 626.122 784.39 626.122 770.882C626.122 765.281 619.861 755.396 629.416 754.408C639.63 753.419 638.312 764.622 640.289 771.541C640.948 774.176 640.618 777.142 640.948 779.778C641.936 786.038 645.89 789.003 651.491 786.367C667.635 778.789 687.404 780.766 700.254 765.281C704.866 759.679 712.115 758.362 719.693 760.338C719.363 766.269 715.08 770.882 717.057 776.483C747.369 744.853 744.074 709.27 729.247 672.698C724.964 662.155 719.693 651.611 713.433 642.057C681.803 592.635 658.081 538.931 637.983 483.908C633.041 470.07 631.393 455.244 628.098 440.747C626.78 435.146 627.439 427.897 618.544 428.556C617.555 435.146 612.943 433.828 608.659 433.828C596.139 433.828 583.949 435.475 571.758 438.111C558.579 440.747 546.718 447.995 532.88 447.995C531.232 448.654 529.915 449.313 528.267 449.972C512.782 454.585 506.522 462.492 514.1 479.625C547.377 554.416 552.648 636.456 574.064 714.541C575.053 718.495 575.053 721.46 572.417 725.085C551.66 753.09 531.233 781.425 510.805 809.76C503.886 818.985 496.308 825.575 483.459 828.21C455.124 833.812 443.262 851.933 443.592 881.256C443.921 895.424 447.546 909.591 442.604 923.758C435.685 944.186 425.471 964.943 433.378 987.677Z"
                fill="#2A6464" />
            <path id="Vector_3"
                d="M617.885 934.631C615.908 937.926 613.272 940.891 611.954 944.186C607.012 956.377 600.752 954.729 592.185 947.151C563.851 922.111 529.585 916.18 493.672 919.146C465.667 921.452 441.615 966.59 449.522 997.561V997.231C454.135 994.266 457.1 996.573 459.736 1000.53L459.407 1000.2C461.054 1000.86 462.701 1001.84 464.349 1002.5C480.493 1009.75 497.296 1013.71 515.088 1013.38C570.77 1012.06 626.122 1023.92 682.132 1020.29C707.832 1018.65 714.092 1010.74 706.843 986.029C692.676 939.244 673.237 894.765 652.809 850.615C647.208 837.106 651.491 831.176 670.601 825.575H670.271C670.601 822.939 672.578 822.609 674.554 822.28C696.3 813.713 710.138 797.899 716.398 775.494C714.092 769.893 718.704 765.281 719.034 759.35C711.456 757.703 704.207 758.691 699.595 764.292C687.075 780.107 666.977 778.13 650.832 785.379C645.231 788.014 641.277 785.049 640.289 778.789C639.959 776.153 640.289 773.188 639.63 770.552C637.653 763.633 638.642 752.431 628.757 753.419C619.203 754.408 625.463 764.292 625.463 769.893C625.463 783.402 618.873 795.263 617.555 808.112C615.249 829.858 619.532 850.285 625.792 871.042C628.428 879.938 632.382 888.505 631.064 898.059C635.347 902.672 636.335 908.603 636.994 914.204C639.959 936.608 638.312 938.255 617.885 934.631Z"
                fill="#F3D8B3" />
            <path id="Vector_4"
                d="M532.221 447.336C546.059 447.336 557.92 440.088 571.099 437.452C583.29 435.146 595.48 433.498 608 433.169C612.284 433.169 617.226 434.487 617.885 427.897C607.342 410.435 609.318 390.337 608.33 371.886C606.353 334.985 597.457 300.39 581.642 267.772C572.088 247.674 564.839 226.588 551.99 208.137C538.811 189.027 535.845 167.611 542.764 145.866C547.377 130.71 541.776 122.144 528.597 117.861C500.591 108.635 482.141 88.2077 464.349 66.4623C457.76 58.2254 447.546 54.6011 438.32 49.9885C433.378 47.6822 429.754 49.3295 427.448 53.9422C423.823 60.2022 418.222 65.4738 422.835 74.6992C437.332 102.375 449.523 131.04 465.008 158.057C483.129 189.686 497.626 221.975 503.886 258.547C509.817 293.471 517.395 328.396 525.632 362.661C532.88 390.666 532.221 419.001 532.221 447.336Z"
                fill="#E9CAA9" />
            <path id="Vector_5"
                d="M433.378 987.677C425.47 964.614 435.684 943.857 441.615 922.77C432.06 921.452 425.47 918.487 426.459 906.296C429.424 871.702 428.106 873.678 395.818 858.852C364.847 844.684 338.818 862.147 310.483 865.441C306.859 865.771 303.235 867.418 299.611 868.736C297.634 879.279 297.634 890.482 309.824 892.458C323.333 894.765 333.217 902.343 344.419 909.262C359.575 918.487 360.893 922.77 349.032 935.949C343.76 941.55 336.841 948.469 344.419 955.388C351.997 962.307 362.541 969.885 371.766 969.885C389.887 969.885 402.407 978.122 415.257 988.336C421.187 988.006 427.118 988.006 433.378 987.677Z"
                fill="#F3D8B3" />
            <path id="Vector_6"
                d="M414.928 988.336C402.078 978.122 389.558 969.886 371.437 969.886C362.212 969.886 351.668 962.308 344.09 955.389C336.512 948.47 343.431 941.551 348.703 935.95C360.564 922.771 359.246 918.487 344.09 909.262C333.218 902.672 323.333 895.095 309.495 892.459C296.975 890.152 296.975 878.95 299.282 868.736C277.207 872.031 252.826 914.204 255.791 938.585C261.721 989.325 291.045 1010.08 342.773 999.868C357.599 996.903 371.766 989.325 388.24 997.232C396.807 1001.19 407.679 995.585 414.928 988.336Z"
                fill="#A3861E" />
            <path id="Vector_7"
                d="M670.601 826.234C651.491 831.835 647.208 837.765 652.809 851.274C655.774 840.731 666.976 836.118 670.601 826.234Z"
                fill="#8EC0C4" />
            <path id="Vector_8"
                d="M459.736 1000.86C457.101 996.902 454.135 994.596 449.523 997.561C451.829 1002.17 455.783 1001.52 459.736 1000.86Z"
                fill="#8EC0C4" />
            <path id="Vector_9"
                d="M464.349 1003.16C462.701 1002.5 461.054 1001.51 459.406 1000.86C459.736 1004.48 462.372 1003.16 464.349 1003.16Z"
                fill="#8EC0C4" />
            <path id="Vector_10"
                d="M674.884 822.939C672.907 823.268 670.93 823.927 670.601 826.234C672.907 826.563 674.225 825.245 674.884 822.939Z"
                fill="#8EC0C4" />
        </g>
    </g>
</svg>