<svg class=" overflow-visible sm:absolute sm:right-0 h-40 sm:h-64 lg:h-50vmin xl:h-30vmax mr-8" viewBox="0 0 1133 1022"
    fill="none" xmlns="http://www.w3.org/2000/svg">
    <g id="question">
        <path id="leaf"
            d="M488.455 535.883C459.552 652.83 401.15 748.422 310.92 824.145C308.313 823.416 305.861 822.336 303.604 821.761C313.145 782.04 320.234 741.24 333.082 702.558C346.436 663.679 365.55 626.918 379.742 594.684C296.691 666.456 194.88 698.178 73.5721 678.231C136.354 612.593 207.64 566.594 287.669 531.138C186.999 544.12 92.1807 529.562 0.0213985 474.763C72.9961 456.279 142.825 461.09 216.974 456.09C145.696 414.667 75.7202 378.838 21.9269 312.905C109.304 322.514 190.667 335.331 268.254 369.074C204.52 317.169 145.706 260.738 98.7266 186.929C190.936 211.214 269.404 252.456 341.043 308.26C307.982 235.141 280.864 160.875 264.64 78.0192C333.07 127.809 378.454 190.04 408.783 259.864C423.728 186.967 439.445 112.319 454.658 37.8666C457.068 38.0915 459.479 38.3165 461.89 38.5414C495.273 114.73 510.867 195.216 517.336 278.378C550.998 188.624 594.4 105.251 654.97 29.4361C659.546 59.8952 645.842 154.672 627.019 207.874C607.003 264.734 584.535 320.515 564.156 373.45C644.813 294.767 743.558 242.453 864.539 224.192C782.853 330.865 676.185 396.423 563.001 454.928C678.128 418.611 795.056 408.604 915.005 428.79C900.786 453.483 878.383 472.064 852.897 487.195C800.916 517.85 743.305 528.041 684.029 528.713C633.149 529.317 582.185 528.211 531.109 528.311C525.278 528.253 519.139 528.896 508.374 529.594C557.215 557.373 594.336 590.868 617.508 637.044C628.156 658.464 637.681 681.481 642.932 704.708C656.513 765.067 683.076 813.991 747.59 832.775C747.519 834.836 747.645 837.401 747.574 839.461C740.972 841.156 733.794 845.106 727.725 843.689C674.395 832.757 636.544 801.869 618.91 749.766C612.075 729.188 608.969 707.742 604.152 686.379C588.722 619.769 551.002 570.533 488.455 535.883Z"
            fill="#AADADA" />
        <g id="pose">
            <path id="Vector"
                d="M343.378 987.677C348.65 991.63 352.604 997.232 359.852 997.891C351.615 966.92 375.996 921.782 404.002 919.475C439.915 916.51 474.18 922.441 502.515 947.481C510.752 954.729 517.012 956.706 522.284 944.515C523.601 940.891 526.237 937.926 528.214 934.961C530.52 922.111 536.451 910.909 541.723 899.048C543.041 889.493 539.087 880.927 536.451 872.031C530.191 851.603 525.908 830.846 528.214 809.101C529.532 795.922 536.122 784.39 536.122 770.882C536.122 765.281 529.861 755.396 539.416 754.408C549.63 753.419 548.312 764.622 550.289 771.541C550.948 774.176 550.618 777.142 550.948 779.778C551.936 786.038 555.89 789.003 561.491 786.367C577.635 778.789 597.404 780.766 610.254 765.281C614.866 759.679 622.115 758.362 629.693 760.338C629.363 766.269 625.08 770.882 627.057 776.483C657.369 744.853 654.074 709.27 639.247 672.698C634.964 662.155 629.693 651.611 623.433 642.057C591.803 592.635 568.081 538.931 547.983 483.908C543.041 470.07 541.393 455.244 538.098 440.747C536.78 435.146 537.439 427.897 528.544 428.556C527.555 435.146 522.943 433.828 518.659 433.828C506.139 433.828 493.949 435.475 481.758 438.111C468.579 440.747 456.718 447.995 442.88 447.995C441.232 448.654 439.915 449.313 438.267 449.972C422.782 454.585 416.522 462.492 424.1 479.625C457.377 554.416 462.648 636.456 484.064 714.541C485.053 718.495 485.053 721.46 482.417 725.085C461.66 753.09 441.233 781.425 420.805 809.76C413.886 818.985 406.308 825.575 393.459 828.21C365.124 833.812 353.262 851.933 353.592 881.256C353.921 895.424 357.546 909.591 352.604 923.758C345.685 944.186 335.471 964.943 343.378 987.677Z"
                fill="#2A6464" />
            <path id="Vector_2"
                d="M527.885 934.631C525.908 937.926 523.272 940.891 521.954 944.186C517.012 956.377 510.752 954.729 502.185 947.151C473.851 922.111 439.585 916.18 403.672 919.146C375.667 921.452 351.615 966.59 359.522 997.561V997.231C364.135 994.266 367.1 996.573 369.736 1000.53L369.407 1000.2C371.054 1000.86 372.701 1001.84 374.349 1002.5C390.493 1009.75 407.296 1013.71 425.088 1013.38C480.77 1012.06 536.122 1023.92 592.132 1020.29C617.832 1018.65 624.092 1010.74 616.843 986.029C602.676 939.244 583.237 894.765 562.809 850.615C557.208 837.106 561.491 831.176 580.601 825.575H580.271C580.601 822.939 582.578 822.609 584.554 822.28C606.3 813.713 620.138 797.899 626.398 775.494C624.092 769.893 628.704 765.281 629.034 759.35C621.456 757.703 614.207 758.691 609.595 764.292C597.075 780.107 576.977 778.13 560.832 785.379C555.231 788.014 551.277 785.049 550.289 778.789C549.959 776.153 550.289 773.188 549.63 770.552C547.653 763.633 548.642 752.431 538.757 753.419C529.203 754.408 535.463 764.292 535.463 769.893C535.463 783.402 528.873 795.263 527.555 808.112C525.249 829.858 529.532 850.285 535.792 871.042C538.428 879.938 542.382 888.505 541.064 898.059C545.347 902.672 546.335 908.603 546.994 914.204C549.959 936.608 548.312 938.255 527.885 934.631Z"
                fill="#F3D8B3" />
            <path id="Vector_3"
                d="M442.221 447.336C456.059 447.336 467.92 440.088 481.099 437.452C493.29 435.146 505.48 433.498 518 433.169C522.284 433.169 527.226 434.487 527.885 427.897C517.342 410.435 519.318 390.337 518.33 371.886C516.353 334.985 507.457 300.39 491.642 267.772C482.088 247.674 474.839 226.588 461.99 208.137C448.811 189.027 445.845 167.611 452.764 145.866C457.377 130.71 451.776 122.144 438.597 117.861C410.591 108.635 392.141 88.2077 374.349 66.4623C367.76 58.2254 357.546 54.6011 348.32 49.9885C343.378 47.6822 339.754 49.3295 337.448 53.9422C333.823 60.2022 328.222 65.4738 332.835 74.6992C347.332 102.375 359.523 131.04 375.008 158.057C393.129 189.686 407.626 221.975 413.886 258.547C419.817 293.471 427.395 328.396 435.632 362.661C442.88 390.666 442.221 419.001 442.221 447.336Z"
                fill="#F3D8B3" />
            <path id="Vector_4"
                d="M343.378 987.677C335.47 964.614 345.684 943.857 351.615 922.77C342.06 921.452 335.47 918.487 336.459 906.296C339.424 871.702 338.106 873.678 305.818 858.852C274.847 844.684 248.818 862.147 220.483 865.441C216.859 865.771 213.235 867.418 209.611 868.736C207.634 879.279 207.634 890.482 219.824 892.458C233.333 894.765 243.217 902.343 254.419 909.262C269.575 918.487 270.893 922.77 259.032 935.949C253.76 941.55 246.841 948.469 254.419 955.388C261.997 962.307 272.541 969.885 281.766 969.885C299.887 969.885 312.407 978.122 325.257 988.336C331.187 988.006 337.118 988.006 343.378 987.677Z"
                fill="#F3D8B3" />
            <path id="Vector_5"
                d="M324.928 988.336C312.078 978.122 299.558 969.886 281.437 969.886C272.212 969.886 261.668 962.308 254.09 955.389C246.512 948.47 253.431 941.551 258.703 935.95C270.564 922.771 269.246 918.487 254.09 909.262C243.218 902.672 233.333 895.095 219.495 892.459C206.975 890.152 206.975 878.95 209.282 868.736C187.207 872.031 162.826 914.204 165.791 938.585C171.721 989.325 201.045 1010.08 252.773 999.868C267.599 996.903 281.766 989.325 298.24 997.232C306.807 1001.19 317.679 995.585 324.928 988.336Z"
                fill="#A3861E" />
            <path id="Vector_6"
                d="M580.601 826.234C561.491 831.835 557.208 837.765 562.809 851.274C565.774 840.731 576.976 836.118 580.601 826.234Z"
                fill="#8EC0C4" />
            <path id="Vector_7"
                d="M369.736 1000.86C367.101 996.902 364.135 994.596 359.523 997.561C361.829 1002.17 365.783 1001.52 369.736 1000.86Z"
                fill="#8EC0C4" />
            <path id="Vector_8"
                d="M374.349 1003.16C372.701 1002.5 371.054 1001.51 369.406 1000.86C369.736 1004.48 372.372 1003.16 374.349 1003.16Z"
                fill="#8EC0C4" />
            <path id="Vector_9"
                d="M584.884 822.939C582.907 823.268 580.93 823.927 580.601 826.234C582.907 826.563 584.225 825.245 584.884 822.939Z"
                fill="#8EC0C4" />
        </g>
        <path id="question-mark"
            d="M810.349 0C907.861 0 985.776 26.7681 1044.09 80.3042C1103.36 133.84 1133 206.975 1133 299.707C1133 396.263 1102.41 468.919 1041.22 517.676C980.039 566.432 898.779 590.81 797.443 590.81L791.707 704.096H649.74L642.57 478.957H689.893C782.625 478.957 853.369 466.529 902.125 441.673C951.837 416.817 976.693 369.495 976.693 299.707C976.693 249.039 961.875 209.365 932.239 180.685C903.559 152.004 863.407 137.664 811.783 137.664C760.159 137.664 719.529 151.526 689.893 179.251C660.257 206.975 645.438 245.693 645.438 295.405H492C492 238.045 504.906 186.899 530.718 141.966C556.53 97.0343 593.336 62.1402 641.136 37.2841C689.893 12.428 746.297 0 810.349 0ZM718.573 1021.01C688.937 1021.01 664.081 1010.97 644.004 990.897C623.928 970.821 613.89 945.965 613.89 916.329C613.89 886.693 623.928 861.837 644.004 841.761C664.081 821.685 688.937 811.646 718.573 811.646C747.253 811.646 771.631 821.685 791.707 841.761C811.783 861.837 821.821 886.693 821.821 916.329C821.821 945.965 811.783 970.821 791.707 990.897C771.631 1010.97 747.253 1021.01 718.573 1021.01Z"
            fill="#A3861E" />
    </g>
</svg>